# xmcd CD database file
#
# Track frame offsets:
#	150
#	31762
#	62280
#	108347
#	140632
#	155197
#
# Disc length: 3424 seconds
#
# Revision: 0
# Processed by: cddbd v1.5.1PL2 Copyright (c) Steve Scherf et al.
# Submitted via: CDex 1.51
#
DISCID=490d5e06
DTITLE=Simon H. Fell - Composition No. 30 [CD2]
DYEAR=1998
DGENRE=Jazz
TTITLE0=Part 5: Guitar
TTITLE1=Construct 4
TTITLE2=Construct 5
TTITLE3=Construct 6
TTITLE4=Trio
TTITLE5=Part 6: Chord Progression
EXTD=YEAR: 1998
EXTT0=
EXTT1=
EXTT2=
EXTT3=
EXTT4=
EXTT5=
PLAYORDER=
